<svg width="1084" height="250" viewBox="0 0 1084 250" fill="none" xmlns="http://www.w3.org/2000/svg">
<path d="M391.4 200C387.667 200 384.667 198.467 382.4 195.4L336.2 134.6L354.4 116L402.2 179.2C404.067 181.733 405 184.467 405 187.4C405 191.133 403.6 194.2 400.8 196.6C398 198.867 394.867 200 391.4 200ZM393.8 59C397 59 399.6 60.3333 401.6 63C403.733 65.5333 404.8 68.1333 404.8 70.8C404.8 73.6 403.6 76.2 401.2 78.6L317.4 158.8L316.4 130.2L384 63.6C387.067 60.5333 390.333 59 393.8 59ZM307.4 200C303.667 200 300.667 198.867 298.4 196.6C296.133 194.2 295 191.267 295 187.8V72.2C295 68.7333 296.2 65.8667 298.6 63.6C301 61.2 304.067 60 307.8 60C311.533 60 314.467 61.2 316.6 63.6C318.867 65.8667 320 68.7333 320 72.2V187.8C320 191.267 318.867 194.2 316.6 196.6C314.333 198.867 311.267 200 307.4 200ZM470.158 202C458.824 202 448.958 199.667 440.558 195C432.291 190.2 425.891 183.733 421.358 175.6C416.958 167.467 414.758 158.267 414.758 148C414.758 136 417.158 125.8 421.958 117.4C426.891 108.867 433.291 102.333 441.158 97.8C449.024 93.2667 457.358 91 466.158 91C472.958 91 479.358 92.4 485.358 95.2C491.491 98 496.891 101.867 501.558 106.8C506.224 111.6 509.891 117.2 512.558 123.6C515.358 130 516.758 136.8 516.758 144C516.624 147.2 515.358 149.8 512.958 151.8C510.558 153.8 507.758 154.8 504.558 154.8H428.158L422.158 134.8H495.558L491.158 138.8V133.4C490.891 129.533 489.491 126.067 486.958 123C484.558 119.933 481.491 117.533 477.758 115.8C474.158 113.933 470.291 113 466.158 113C462.158 113 458.424 113.533 454.958 114.6C451.491 115.667 448.491 117.467 445.958 120C443.424 122.533 441.424 125.933 439.958 130.2C438.491 134.467 437.758 139.867 437.758 146.4C437.758 153.6 439.224 159.733 442.158 164.8C445.224 169.733 449.091 173.533 453.758 176.2C458.558 178.733 463.624 180 468.958 180C473.891 180 477.824 179.6 480.758 178.8C483.691 178 486.024 177.067 487.758 176C489.624 174.8 491.291 173.8 492.758 173C495.158 171.8 497.424 171.2 499.558 171.2C502.491 171.2 504.891 172.2 506.758 174.2C508.758 176.2 509.758 178.533 509.758 181.2C509.758 184.8 507.891 188.067 504.158 191C500.691 193.933 495.824 196.533 489.558 198.8C483.291 200.933 476.824 202 470.158 202ZM616.15 93C619.617 93 622.483 94.2 624.75 96.6C627.017 98.8667 628.15 101.733 628.15 105.2V190.2C628.15 202.467 625.817 212.2 621.15 219.4C616.617 226.733 610.483 232 602.75 235.2C595.017 238.4 586.35 240 576.75 240C572.483 240 567.95 239.667 563.15 239C558.35 238.333 554.417 237.333 551.35 236C547.35 234.267 544.55 232.067 542.95 229.4C541.483 226.867 541.217 224.133 542.15 221.2C543.35 217.333 545.283 214.667 547.95 213.2C550.617 211.867 553.417 211.733 556.35 212.8C558.483 213.467 561.283 214.467 564.75 215.8C568.217 217.267 572.217 218 576.75 218C582.883 218 587.95 217.133 591.95 215.4C596.083 213.8 599.15 211 601.15 207C603.283 203.133 604.35 197.8 604.35 191V177.6L608.55 182.4C606.283 186.8 603.417 190.467 599.95 193.4C596.617 196.2 592.617 198.333 587.95 199.8C583.283 201.267 577.95 202 571.95 202C564.883 202 558.683 200.4 553.35 197.2C548.15 193.867 544.083 189.333 541.15 183.6C538.217 177.733 536.75 171.067 536.75 163.6V105.2C536.75 101.733 537.883 98.8667 540.15 96.6C542.417 94.2 545.283 93 548.75 93C552.217 93 555.083 94.2 557.35 96.6C559.617 98.8667 560.75 101.733 560.75 105.2V156.4C560.75 165.067 562.617 171.2 566.35 174.8C570.217 178.267 575.55 180 582.35 180C587.017 180 590.95 179.133 594.15 177.4C597.35 175.533 599.817 172.867 601.55 169.4C603.283 165.8 604.15 161.467 604.15 156.4V105.2C604.15 101.733 605.283 98.8667 607.55 96.6C609.817 94.2 612.683 93 616.15 93ZM711.333 91C721.199 91 728.666 93.0667 733.733 97.2C738.933 101.333 742.466 106.867 744.333 113.8C746.333 120.6 747.333 128.2 747.333 136.6V187.8C747.333 191.267 746.199 194.2 743.933 196.6C741.666 198.867 738.799 200 735.333 200C731.866 200 728.999 198.867 726.733 196.6C724.466 194.2 723.333 191.267 723.333 187.8V136.6C723.333 132.2 722.733 128.267 721.533 124.8C720.466 121.2 718.466 118.333 715.533 116.2C712.599 114.067 708.399 113 702.933 113C697.599 113 693.066 114.067 689.333 116.2C685.733 118.333 682.933 121.2 680.933 124.8C679.066 128.267 678.133 132.2 678.133 136.6V187.8C678.133 191.267 676.999 194.2 674.733 196.6C672.466 198.867 669.599 200 666.133 200C662.666 200 659.799 198.867 657.533 196.6C655.266 194.2 654.133 191.267 654.133 187.8V105.2C654.133 101.733 655.266 98.8667 657.533 96.6C659.799 94.2 662.666 93 666.133 93C669.599 93 672.466 94.2 674.733 96.6C676.999 98.8667 678.133 101.733 678.133 105.2V113.8L675.133 113.2C676.333 110.933 678.066 108.533 680.333 106C682.599 103.333 685.266 100.867 688.333 98.6C691.399 96.3333 694.866 94.5333 698.733 93.2C702.599 91.7333 706.799 91 711.333 91ZM877.073 146.6C877.073 157.533 874.607 167.2 869.673 175.6C864.873 183.867 858.34 190.333 850.073 195C841.94 199.667 832.807 202 822.673 202C812.54 202 803.34 199.667 795.073 195C786.94 190.333 780.407 183.867 775.473 175.6C770.673 167.2 768.273 157.533 768.273 146.6C768.273 135.667 770.673 126.067 775.473 117.8C780.407 109.4 786.94 102.867 795.073 98.2C803.34 93.4 812.54 91 822.673 91C832.807 91 841.94 93.4 850.073 98.2C858.34 102.867 864.873 109.4 869.673 117.8C874.607 126.067 877.073 135.667 877.073 146.6ZM853.073 146.6C853.073 139.8 851.673 133.933 848.873 129C846.207 123.933 842.54 120 837.873 117.2C833.34 114.4 828.273 113 822.673 113C817.073 113 811.94 114.4 807.273 117.2C802.74 120 799.073 123.933 796.273 129C793.607 133.933 792.273 139.8 792.273 146.6C792.273 153.267 793.607 159.133 796.273 164.2C799.073 169.133 802.74 173 807.273 175.8C811.94 178.6 817.073 180 822.673 180C828.273 180 833.34 178.6 837.873 175.8C842.54 173 846.207 169.133 848.873 164.2C851.673 159.133 853.073 153.267 853.073 146.6ZM899.278 95H946.678C949.878 95 952.545 96.0667 954.678 98.2C956.811 100.333 957.878 103 957.878 106.2C957.878 109.267 956.811 111.867 954.678 114C952.545 116 949.878 117 946.678 117H899.278C896.078 117 893.411 115.933 891.278 113.8C889.145 111.667 888.078 109 888.078 105.8C888.078 102.733 889.145 100.2 891.278 98.2C893.411 96.0667 896.078 95 899.278 95ZM920.678 70C924.145 70 926.945 71.2 929.078 73.6C931.345 75.8667 932.478 78.7333 932.478 82.2V171.2C932.478 173.067 932.811 174.6 933.478 175.8C934.278 177 935.278 177.867 936.478 178.4C937.811 178.933 939.211 179.2 940.678 179.2C942.278 179.2 943.745 178.933 945.078 178.4C946.411 177.733 947.945 177.4 949.678 177.4C951.545 177.4 953.211 178.267 954.678 180C956.278 181.733 957.078 184.133 957.078 187.2C957.078 190.933 955.011 194 950.878 196.4C946.878 198.8 942.545 200 937.878 200C935.078 200 931.945 199.8 928.478 199.4C925.145 198.867 921.945 197.733 918.878 196C915.945 194.133 913.478 191.333 911.478 187.6C909.478 183.867 908.478 178.733 908.478 172.2V82.2C908.478 78.7333 909.611 75.8667 911.878 73.6C914.278 71.2 917.211 70 920.678 70ZM1029.34 202C1018 202 1008.14 199.667 999.738 195C991.471 190.2 985.071 183.733 980.538 175.6C976.138 167.467 973.938 158.267 973.938 148C973.938 136 976.338 125.8 981.138 117.4C986.071 108.867 992.471 102.333 1000.34 97.8C1008.2 93.2667 1016.54 91 1025.34 91C1032.14 91 1038.54 92.4 1044.54 95.2C1050.67 98 1056.07 101.867 1060.74 106.8C1065.4 111.6 1069.07 117.2 1071.74 123.6C1074.54 130 1075.94 136.8 1075.94 144C1075.8 147.2 1074.54 149.8 1072.14 151.8C1069.74 153.8 1066.94 154.8 1063.74 154.8H987.338L981.338 134.8H1054.74L1050.34 138.8V133.4C1050.07 129.533 1048.67 126.067 1046.14 123C1043.74 119.933 1040.67 117.533 1036.94 115.8C1033.34 113.933 1029.47 113 1025.34 113C1021.34 113 1017.6 113.533 1014.14 114.6C1010.67 115.667 1007.67 117.467 1005.14 120C1002.6 122.533 1000.6 125.933 999.138 130.2C997.671 134.467 996.938 139.867 996.938 146.4C996.938 153.6 998.404 159.733 1001.34 164.8C1004.4 169.733 1008.27 173.533 1012.94 176.2C1017.74 178.733 1022.8 180 1028.14 180C1033.07 180 1037 179.6 1039.94 178.8C1042.87 178 1045.2 177.067 1046.94 176C1048.8 174.8 1050.47 173.8 1051.94 173C1054.34 171.8 1056.6 171.2 1058.74 171.2C1061.67 171.2 1064.07 172.2 1065.94 174.2C1067.94 176.2 1068.94 178.533 1068.94 181.2C1068.94 184.8 1067.07 188.067 1063.34 191C1059.87 193.933 1055 196.533 1048.74 198.8C1042.47 200.933 1036 202 1029.34 202Z" fill="white"/>
<path d="M0 71.4286C0 31.9797 31.9797 0 71.4286 0V0C170.051 0 250 79.9492 250 178.571V178.571C250 218.02 218.02 250 178.571 250H60C26.8629 250 0 223.137 0 190V71.4286Z" fill="white"/>
<circle cx="128.5" cy="121.5" r="113.5" fill="black" stroke="white" stroke-width="10"/>
<path fill-rule="evenodd" clip-rule="evenodd" d="M151.006 79.4259C140.826 79.4259 132.541 87.6497 132.541 97.8346C132.541 108.019 140.826 116.243 151.006 116.243C161.186 116.243 169.471 108.019 169.471 97.8346C169.471 87.6497 161.186 79.4259 151.006 79.4259ZM141.916 97.8346C141.916 92.8635 145.968 88.8009 151.006 88.8009C156.044 88.8009 160.096 92.8635 160.096 97.8346C160.096 102.806 156.044 106.868 151.006 106.868C145.968 106.868 141.916 102.806 141.916 97.8346Z" fill="white"/>
<path fill-rule="evenodd" clip-rule="evenodd" d="M112.562 176.489C114.644 173.587 115.314 170.643 115.264 168.021C117.715 168.742 120.14 168.833 122.463 168.392C127.266 167.481 130.819 164.445 132.704 161.942L132.738 161.898L132.769 161.854C136.052 157.277 136.045 152.589 135.241 149.227C134.848 147.58 134.263 146.226 133.778 145.279C133.533 144.801 133.306 144.412 133.129 144.128C133.083 144.053 133.039 143.984 132.999 143.923C132.445 142.888 131.819 142.074 131.293 141.461L131.349 141.404L134.251 138.515C136.636 139.656 139.223 140.374 141.489 140.843C145.15 141.601 148.732 141.856 151.004 141.856C175.388 141.856 195.188 122.164 195.188 97.834C195.188 73.5035 175.388 53.8125 151.004 53.8125C126.621 53.8125 106.822 73.5035 106.822 97.834C106.822 103.566 108.126 108.474 109.412 111.931C109.739 112.811 110.068 113.604 110.377 114.299L65.032 159.459C63.4293 161.056 61.5493 163.831 60.9811 167.307C60.3648 171.077 61.377 175.268 65.032 178.909L70.543 184.397C70.6279 184.482 70.7161 184.563 70.8073 184.641C72.3991 185.999 75.0728 187.571 78.2858 188.046C81.732 188.555 85.7205 187.761 89.0987 184.397L92.6395 180.871C95.9702 182.781 99.4908 183.216 102.746 182.592C106.969 181.784 110.48 179.256 112.498 176.577L112.531 176.534L112.562 176.489ZM116.196 97.834C116.196 78.7173 131.763 63.1875 151.004 63.1875C170.246 63.1875 185.813 78.7173 185.813 97.834C185.813 116.951 170.246 132.481 151.004 132.481C149.297 132.481 146.358 132.277 143.389 131.663C140.284 131.02 137.845 130.065 136.546 128.987C134.687 127.444 131.958 127.567 130.245 129.273L124.734 134.762C123.473 136.017 122.261 137.441 121.621 139.083C120.812 141.163 121.07 143.164 121.996 144.826C122.546 145.811 123.431 146.751 123.799 147.144L123.923 147.276C124.358 147.757 124.597 148.071 124.771 148.419L124.936 148.748L125.125 149.011L125.168 149.077C125.224 149.169 125.32 149.331 125.434 149.553C125.667 150.007 125.943 150.653 126.123 151.407C126.465 152.836 126.461 154.535 125.184 156.344C124.304 157.49 122.64 158.816 120.716 159.182C119.106 159.487 116.482 159.288 112.98 155.801C111.151 153.979 108.193 153.979 106.364 155.801L104.527 157.63C102.797 159.353 102.681 162.114 104.253 163.976C104.262 163.986 104.286 164.016 104.323 164.064C104.398 164.164 104.521 164.335 104.668 164.565C104.968 165.038 105.321 165.692 105.571 166.441C106.043 167.852 106.118 169.359 104.977 170.979C104.228 171.949 102.706 173.054 100.983 173.384C99.5181 173.665 97.6428 173.457 95.5281 171.351C93.6991 169.529 90.7416 169.529 88.9126 171.351L82.4831 177.754C81.4526 178.781 80.5425 178.902 79.6566 178.771C78.6081 178.616 77.5833 178.058 77.0048 177.601L71.6475 172.266C70.159 170.783 70.0995 169.638 70.2333 168.819C70.4152 167.707 71.107 166.641 71.6475 166.102L119.424 118.521C120.967 116.984 121.241 114.584 120.083 112.74L120.069 112.717C120.053 112.689 120.02 112.634 119.974 112.554C119.883 112.394 119.738 112.134 119.559 111.782C119.199 111.077 118.701 110.014 118.199 108.664C117.188 105.946 116.196 102.164 116.196 97.834ZM104.253 163.976C104.262 163.986 104.271 163.996 104.279 164.006L104.272 163.997L104.253 163.976Z" fill="white"/>
</svg>
