<svg width="250" height="250" viewBox="0 0 250 250" fill="none" xmlns="http://www.w3.org/2000/svg">
<path d="M0 71.4286C0 31.9797 31.9797 0 71.4286 0V0C170.051 0 250 79.9492 250 178.571V178.571C250 218.02 218.02 250 178.571 250H60C26.8629 250 0 223.137 0 190V71.4286Z" fill="black"/>
<circle cx="128.5" cy="121.5" r="113.5" fill="white" stroke="black" stroke-width="10"/>
<path fill-rule="evenodd" clip-rule="evenodd" d="M151.006 79.4259C140.826 79.4259 132.541 87.6497 132.541 97.8346C132.541 108.019 140.826 116.243 151.006 116.243C161.186 116.243 169.471 108.019 169.471 97.8346C169.471 87.6497 161.186 79.4259 151.006 79.4259ZM141.916 97.8346C141.916 92.8635 145.968 88.8009 151.006 88.8009C156.044 88.8009 160.096 92.8635 160.096 97.8346C160.096 102.806 156.044 106.868 151.006 106.868C145.968 106.868 141.916 102.806 141.916 97.8346Z" fill="black"/>
<path fill-rule="evenodd" clip-rule="evenodd" d="M112.562 176.489C114.644 173.587 115.314 170.643 115.264 168.021C117.715 168.742 120.14 168.833 122.463 168.392C127.266 167.481 130.819 164.445 132.704 161.942L132.738 161.898L132.769 161.854C136.052 157.277 136.045 152.589 135.241 149.227C134.848 147.58 134.263 146.226 133.778 145.279C133.533 144.801 133.306 144.412 133.129 144.128C133.083 144.053 133.039 143.984 132.999 143.923C132.445 142.888 131.819 142.074 131.293 141.461L131.349 141.404L134.251 138.515C136.636 139.656 139.223 140.374 141.489 140.843C145.15 141.601 148.732 141.856 151.004 141.856C175.388 141.856 195.188 122.164 195.188 97.834C195.188 73.5035 175.388 53.8125 151.004 53.8125C126.621 53.8125 106.822 73.5035 106.822 97.834C106.822 103.566 108.126 108.474 109.412 111.931C109.739 112.811 110.068 113.604 110.377 114.299L65.032 159.459C63.4293 161.056 61.5493 163.831 60.9811 167.307C60.3648 171.077 61.377 175.268 65.032 178.909L70.543 184.397C70.6279 184.482 70.7161 184.563 70.8073 184.641C72.3991 185.999 75.0728 187.571 78.2858 188.046C81.732 188.555 85.7205 187.761 89.0987 184.397L92.6395 180.871C95.9702 182.781 99.4908 183.216 102.746 182.592C106.969 181.784 110.48 179.256 112.498 176.577L112.531 176.534L112.562 176.489ZM116.196 97.834C116.196 78.7173 131.763 63.1875 151.004 63.1875C170.246 63.1875 185.813 78.7173 185.813 97.834C185.813 116.951 170.246 132.481 151.004 132.481C149.297 132.481 146.358 132.277 143.389 131.663C140.284 131.02 137.845 130.065 136.546 128.987C134.687 127.444 131.958 127.567 130.245 129.273L124.734 134.762C123.473 136.017 122.261 137.441 121.621 139.083C120.812 141.163 121.07 143.164 121.996 144.826C122.546 145.811 123.431 146.751 123.799 147.144L123.923 147.276C124.358 147.757 124.597 148.071 124.771 148.419L124.936 148.748L125.125 149.011L125.168 149.077C125.224 149.169 125.32 149.331 125.434 149.553C125.667 150.007 125.943 150.653 126.123 151.407C126.465 152.836 126.461 154.535 125.184 156.344C124.304 157.49 122.64 158.816 120.716 159.182C119.106 159.487 116.482 159.288 112.98 155.801C111.151 153.979 108.193 153.979 106.364 155.801L104.527 157.63C102.797 159.353 102.681 162.114 104.253 163.976C104.262 163.986 104.286 164.016 104.323 164.064C104.398 164.164 104.521 164.335 104.668 164.565C104.968 165.038 105.321 165.692 105.571 166.441C106.043 167.852 106.118 169.359 104.977 170.979C104.228 171.949 102.706 173.054 100.983 173.384C99.5181 173.665 97.6428 173.457 95.5281 171.351C93.6991 169.529 90.7416 169.529 88.9126 171.351L82.4831 177.754C81.4526 178.781 80.5425 178.902 79.6566 178.771C78.6081 178.616 77.5833 178.058 77.0048 177.601L71.6475 172.266C70.159 170.783 70.0995 169.638 70.2333 168.819C70.4152 167.707 71.107 166.641 71.6475 166.102L119.424 118.521C120.967 116.984 121.241 114.584 120.083 112.74L120.069 112.717C120.053 112.689 120.02 112.634 119.974 112.554C119.883 112.394 119.738 112.134 119.559 111.782C119.199 111.077 118.701 110.014 118.199 108.664C117.188 105.946 116.196 102.164 116.196 97.834ZM104.253 163.976C104.262 163.986 104.271 163.996 104.279 164.006L104.272 163.997L104.253 163.976Z" fill="black"/>
</svg>
